<svg width="460" height="88" viewBox="0 0 460 88" fill="none" xmlns="http://www.w3.org/2000/svg">
<path d="M77.6362 16.9375H70.5112V23.2812H69.5112V15.9375H77.6362V16.9375Z" fill="white"/>
<path d="M77.6362 31.2188H70.5112V64H69.5112V30.2188H77.6362V31.2188Z" fill="white"/>
<path d="M88.9485 61.4152C88.8302 61.2796 88.7157 61.1412 88.605 61C88.0216 60.2292 87.5425 59.4271 87.1675 58.5938C86.7925 57.7396 86.5112 56.8854 86.3237 56.0312C86.1571 55.1562 86.0737 54.3438 86.0737 53.5938V42.5938C86.0737 40.5104 86.4487 38.75 87.1987 37.3125C87.9696 35.8542 88.9175 34.6771 90.0425 33.7812C91.1883 32.8646 92.4279 32.2083 93.7612 31.8125C95.0946 31.4167 96.3237 31.2188 97.4487 31.2188H111.105V30.2188H96.4487C95.3237 30.2188 94.0946 30.4167 92.7612 30.8125C91.4279 31.2083 90.1883 31.8646 89.0425 32.7812C87.9175 33.6771 86.9696 34.8542 86.1987 36.3125C85.4487 37.75 85.0737 39.5104 85.0737 41.5938V52.5938C85.0737 53.3438 85.1571 54.1562 85.3237 55.0312C85.5112 55.8854 85.7925 56.7396 86.1675 57.5938C86.5425 58.4271 87.0216 59.2292 87.605 60C88.0031 60.5079 88.4509 60.9797 88.9485 61.4152Z" fill="white"/>
<path d="M122.511 16.9375V15.9375H114.386V52.5938C114.386 53.6562 114.115 54.4688 113.574 55.0312C113.032 55.5938 112.209 55.875 111.105 55.875H96.4487C95.7168 55.875 95.1035 55.7415 94.6089 55.4746C94.7203 55.6829 94.8544 55.8684 95.0112 56.0312C95.5737 56.5938 96.3862 56.875 97.4487 56.875H112.105C113.209 56.875 114.032 56.5938 114.574 56.0312C115.115 55.4688 115.386 54.6562 115.386 53.5938V16.9375H122.511Z" fill="white"/>
<path d="M299.051 23.2812H298.051V15.9375H306.176V16.9375H299.051V23.2812Z" fill="white"/>
<path d="M299.051 64H298.051V30.2188H306.176V31.2188H299.051V64Z" fill="white"/>
<path d="M353.489 23.2812H352.489V15.9375H360.614V16.9375H353.489V23.2812Z" fill="white"/>
<path d="M353.489 64H352.489V30.2188H360.614V31.2188H353.489V64Z" fill="white"/>
<path d="M402.334 33.8464C401.678 33.2791 400.927 32.7782 400.083 32.3438C398.624 31.5938 396.853 31.2188 394.77 31.2188H380.114C378.989 31.2188 377.76 31.4167 376.426 31.8125C375.093 32.2083 373.853 32.8646 372.708 33.7812C371.583 34.6771 370.635 35.8542 369.864 37.3125C369.114 38.75 368.739 40.5104 368.739 42.5938V53.5938C368.739 55.6979 369.114 57.4792 369.864 58.9375C370.328 59.8025 370.856 60.5733 371.448 61.2497C370.436 60.367 369.575 59.263 368.864 57.9375C368.114 56.4792 367.739 54.6979 367.739 52.5938V41.5938C367.739 39.5104 368.114 37.75 368.864 36.3125C369.635 34.8542 370.583 33.6771 371.708 32.7812C372.853 31.8646 374.093 31.2083 375.426 30.8125C376.76 30.4167 377.989 30.2188 379.114 30.2188H393.77C395.853 30.2188 397.624 30.5938 399.083 31.3438C400.394 32.018 401.477 32.8522 402.334 33.8464Z" fill="white"/>
<path d="M396.654 39.7529C396.919 40.2501 397.051 40.8846 397.051 41.6562V52.5938C397.051 53.6562 396.78 54.4688 396.239 55.0312C395.697 55.5938 394.874 55.875 393.77 55.875H379.176C378.415 55.875 377.782 55.736 377.277 55.4579C377.396 55.6715 377.539 55.8626 377.708 56.0312C378.27 56.5938 379.093 56.875 380.176 56.875H394.77C395.874 56.875 396.697 56.5938 397.239 56.0312C397.78 55.4688 398.051 54.6562 398.051 53.5938V42.6562C398.051 41.5312 397.77 40.6979 397.208 40.1562C397.044 39.999 396.86 39.8645 396.654 39.7529Z" fill="white"/>
<path d="M445.992 35.1904C445.768 34.9924 445.538 34.8039 445.301 34.625C444.301 33.8333 443.239 33.1875 442.114 32.6875C441.01 32.1667 439.885 31.7917 438.739 31.5625C437.614 31.3333 436.541 31.2188 435.52 31.2188H417.208C416.645 31.2188 416.114 31.3229 415.614 31.5312C415.114 31.7396 414.676 32.0312 414.301 32.4062C413.926 32.7604 413.635 33.1875 413.426 33.6875C413.218 34.1667 413.114 34.6875 413.114 35.25V64H412.114V34.25C412.114 33.6875 412.218 33.1667 412.426 32.6875C412.635 32.1875 412.926 31.7604 413.301 31.4062C413.676 31.0312 414.114 30.7396 414.614 30.5312C415.114 30.3229 415.645 30.2188 416.208 30.2188H434.52C435.541 30.2188 436.614 30.3333 437.739 30.5625C438.885 30.7917 440.01 31.1667 441.114 31.6875C442.239 32.1875 443.301 32.8333 444.301 33.625C444.909 34.084 445.473 34.6058 445.992 35.1904Z" fill="white"/>
<path d="M442.426 64V46.25C442.426 45.1875 442.239 44.2396 441.864 43.4062C441.51 42.5521 441.02 41.8229 440.395 41.2188C440.25 41.0784 440.098 40.946 439.941 40.8214C440.313 41.2905 440.62 41.8188 440.864 42.4062C441.239 43.2396 441.426 44.1875 441.426 45.25V64H442.426Z" fill="white"/>
<path d="M314.239 64H313.239V55.875H335.176C336.28 55.875 337.114 55.5938 337.676 55.0312C338.239 54.4688 338.52 53.6562 338.52 52.5938C338.484 51.8475 338.331 51.2298 338.06 50.7406C338.966 51.2331 339.452 52.1842 339.52 53.5938C339.52 54.6562 339.239 55.4688 338.676 56.0312C338.114 56.5938 337.28 56.875 336.176 56.875H314.239V64Z" fill="white"/>
<path d="M316.019 47.0611C315.249 46.124 314.686 45.114 314.333 44.0312C313.999 42.9479 313.833 41.9375 313.833 41C313.833 39.1875 314.155 37.6667 314.801 36.4375C315.447 35.1875 316.26 34.1771 317.239 33.4062C318.218 32.6354 319.28 32.0833 320.426 31.75C321.572 31.3958 322.645 31.2188 323.645 31.2188H342.614V30.2188H322.645C321.645 30.2188 320.572 30.3958 319.426 30.75C318.28 31.0833 317.218 31.6354 316.239 32.4062C315.26 33.1771 314.447 34.1875 313.801 35.4375C313.155 36.6667 312.833 38.1875 312.833 40C312.833 40.9375 312.999 41.9479 313.333 43.0312C313.687 44.1146 314.249 45.125 315.02 46.0625C315.32 46.4178 315.653 46.7506 316.019 47.0611Z" fill="white"/>
<path d="M321.997 41.2118C322.03 41.3893 322.079 41.5374 322.145 41.6562C322.249 41.8438 322.374 41.9792 322.52 42.0625C322.687 42.1458 322.864 42.1979 323.051 42.2188H336.239C338.322 42.2188 340.093 42.5938 341.551 43.3438C342.396 43.7782 343.146 44.2791 343.802 44.8464C342.946 43.8522 341.862 43.018 340.551 42.3438C339.093 41.5938 337.322 41.2188 335.239 41.2188H322.051C322.033 41.2167 322.015 41.2144 321.997 41.2118Z" fill="white"/>
<path d="M294.661 31.2188C294.772 30.886 294.881 30.5527 294.989 30.2188H286.364C285.989 31.6562 285.416 33.2812 284.645 35.0938C283.895 36.9062 282.978 38.7604 281.895 40.6562C280.812 42.5312 279.572 44.3646 278.176 46.1562C276.801 47.9479 275.301 49.5521 273.676 50.9688C272.051 52.3646 270.322 53.4896 268.489 54.3438C266.984 55.053 265.421 55.4678 263.801 55.5881V56.625C265.78 56.625 267.676 56.1979 269.489 55.3438C271.322 54.4896 273.051 53.3646 274.676 51.9688C276.301 50.5521 277.801 48.9479 279.176 47.1562C280.572 45.3646 281.812 43.5312 282.895 41.6562C283.978 39.7604 284.895 37.9062 285.645 36.0938C286.416 34.2812 286.989 32.6562 287.364 31.2188H294.661Z" fill="white"/>
<path d="M255.864 62.9062C256.022 63.0554 256.191 63.1916 256.371 63.3149C256.222 63.0984 256.095 62.8684 255.989 62.625C255.78 62.125 255.676 61.5938 255.676 61.0312V31.2188H262.801V30.2188H254.676V60.0312C254.676 60.5938 254.78 61.125 254.989 61.625C255.197 62.1042 255.489 62.5312 255.864 62.9062Z" fill="white"/>
<path d="M241.981 63.2265C241.827 62.9994 241.694 62.7572 241.582 62.5C241.374 62 241.27 61.4688 241.27 60.9062C241.27 60.3646 241.374 59.8542 241.582 59.375C241.791 58.875 242.072 58.4479 242.426 58.0938C242.801 57.7188 243.228 57.4271 243.707 57.2188C244.207 56.9896 244.739 56.875 245.301 56.875C245.843 56.875 246.353 56.9896 246.832 57.2188C247.102 57.3312 247.351 57.468 247.578 57.629C247.441 57.4352 247.286 57.2567 247.114 57.0938C246.76 56.7188 246.332 56.4271 245.832 56.2188C245.353 55.9896 244.843 55.875 244.301 55.875C243.739 55.875 243.207 55.9896 242.707 56.2188C242.228 56.4271 241.801 56.7188 241.426 57.0938C241.072 57.4479 240.791 57.875 240.582 58.375C240.374 58.8542 240.27 59.3646 240.27 59.9062C240.27 60.4688 240.374 61 240.582 61.5C240.791 61.9792 241.072 62.4062 241.426 62.7812C241.6 62.9453 241.785 63.0938 241.981 63.2265Z" fill="white"/>
<path d="M225.574 64H224.574V39.3438H225.574V64Z" fill="white"/>
<path d="M215.011 38.3438V31.2188H225.574V20.1875H232.792V19.1875H224.574V30.2188H214.011V38.3438H215.011Z" fill="white"/>
<path d="M233.792 30.2188V31.2188H246.98V30.2188H233.792Z" fill="white"/>
<path d="M185.949 52.5938V45.875H200.605C201.709 45.875 202.563 45.5417 203.167 44.875C203.772 44.1875 204.074 43.3438 204.074 42.3438C204.074 41.2812 203.73 40.4479 203.042 39.8438C202.902 39.7165 202.755 39.6027 202.602 39.5023C202.916 40.0112 203.074 40.6251 203.074 41.3438C203.074 42.3438 202.772 43.1875 202.167 43.875C201.563 44.5417 200.709 44.875 199.605 44.875H184.949V52.5938H185.949Z" fill="white"/>
<path d="M208.2 34.0323C207.786 33.5531 207.338 33.1256 206.855 32.75C205.751 31.8542 204.542 31.2083 203.23 30.8125C201.938 30.4167 200.73 30.2188 199.605 30.2188H184.949C182.907 30.2188 181.167 30.5938 179.73 31.3438C178.313 32.0938 177.157 33.0312 176.261 34.1562C175.386 35.2604 174.751 36.4688 174.355 37.7812C173.959 39.0729 173.761 40.2812 173.761 41.4062V52.8125C173.761 54.8542 174.136 56.5938 174.886 58.0312C175.58 59.3421 176.426 60.43 177.423 61.295C176.847 60.6337 176.335 59.8791 175.886 59.0312C175.136 57.5938 174.761 55.8542 174.761 53.8125V42.4062C174.761 41.2812 174.959 40.0729 175.355 38.7812C175.751 37.4688 176.386 36.2604 177.261 35.1562C178.157 34.0312 179.313 33.0938 180.73 32.3438C182.167 31.5938 183.907 31.2188 185.949 31.2188H200.605C201.73 31.2188 202.938 31.4167 204.23 31.8125C205.542 32.2083 206.751 32.8542 207.855 33.75C207.972 33.8411 208.087 33.9352 208.2 34.0323Z" fill="white"/>
<path d="M199.605 56.25V57.25H186.011C185.011 57.25 184.167 56.9479 183.48 56.3438C183.266 56.1503 183.087 55.9323 182.942 55.6897C183.535 56.0632 184.225 56.25 185.011 56.25H199.605Z" fill="white"/>
<path d="M141.949 78.6562H140.949V70.5312H155.605C156.709 70.5312 157.532 70.25 158.074 69.6875C158.615 69.125 158.886 68.3125 158.886 67.25V41.5938C158.886 40.8498 158.753 40.2335 158.488 39.7449C158.71 39.8653 158.906 40.0129 159.074 40.1875C159.615 40.7292 159.886 41.5312 159.886 42.5938V68.25C159.886 69.3125 159.615 70.125 159.074 70.6875C158.532 71.25 157.709 71.5312 156.605 71.5312H141.949V78.6562Z" fill="white"/>
<path d="M164.425 34.0886C164.3 33.9823 164.173 33.8798 164.042 33.7812C163.272 33.1771 162.459 32.6875 161.605 32.3125C160.772 31.9375 159.917 31.6667 159.042 31.5C158.188 31.3125 157.376 31.2188 156.605 31.2188H141.949C140.553 31.2188 139.303 31.3958 138.199 31.75C137.095 32.1042 136.115 32.5729 135.261 33.1562C134.428 33.7396 133.709 34.4167 133.105 35.1875C132.522 35.9583 132.042 36.7708 131.667 37.625C131.292 38.4583 131.011 39.3021 130.824 40.1562C130.657 41.0104 130.574 41.8229 130.574 42.5938V53.5938C130.574 54.9896 130.751 56.25 131.105 57.375C131.459 58.4792 131.928 59.4583 132.511 60.3125C132.722 60.6129 132.944 60.8984 133.179 61.169C132.557 60.631 132.001 60.0121 131.511 59.3125C130.928 58.4583 130.459 57.4792 130.105 56.375C129.751 55.25 129.574 53.9896 129.574 52.5938V41.5938C129.574 40.8229 129.657 40.0104 129.824 39.1562C130.011 38.3021 130.292 37.4583 130.667 36.625C131.042 35.7708 131.522 34.9583 132.105 34.1875C132.709 33.4167 133.428 32.7396 134.261 32.1562C135.115 31.5729 136.095 31.1042 137.199 30.75C138.303 30.3958 139.553 30.2188 140.949 30.2188H155.605C156.376 30.2188 157.188 30.3125 158.042 30.5C158.917 30.6667 159.772 30.9375 160.605 31.3125C161.459 31.6875 162.272 32.1771 163.042 32.7812C163.543 33.16 164.004 33.5957 164.425 34.0886Z" fill="white"/>
<path d="M141.011 55.875C140.25 55.875 139.617 55.736 139.112 55.4579C139.23 55.6715 139.374 55.8626 139.542 56.0312C140.105 56.5938 140.928 56.875 142.011 56.875H155.605V55.875H141.011Z" fill="white"/>
<path d="M66.1228 31.2187C66.2745 30.886 66.4248 30.5526 66.5737 30.2187H57.48C56.4591 32.2604 55.4071 34.3125 54.3237 36.375C53.2612 38.4167 52.1154 40.4375 50.8862 42.4375C49.6779 44.4167 48.3654 46.3438 46.9487 48.2188C45.807 49.7299 44.557 51.1801 43.1987 52.5695V54.5625C44.9487 52.875 46.5321 51.0938 47.9487 49.2188C49.3654 47.3438 50.6779 45.4167 51.8862 43.4375C53.1154 41.4375 54.2612 39.4167 55.3237 37.375C56.4071 35.3125 57.4591 33.2604 58.48 31.2187H66.1228Z" fill="white"/>
<path d="M35.7464 63.2588C35.5935 63.0331 35.463 62.7906 35.355 62.5312C35.1466 62.0312 35.0425 61.4896 35.0425 60.9062V45.75L34.0425 46.8682V59.9062C34.0425 60.4896 34.1466 61.0312 34.355 61.5312C34.5633 62.0312 34.855 62.4688 35.23 62.8438C35.3907 62.9955 35.5628 63.1339 35.7464 63.2588Z" fill="white"/>
<path d="M39.6987 30.5312C40.4289 30.8273 41.0096 31.2915 41.4406 31.9241C41.2134 31.7706 40.9661 31.6396 40.6987 31.5312C39.9279 31.1979 39.1362 31.1146 38.3237 31.2812C37.5321 31.4271 36.8446 31.7917 36.2612 32.375L20.0737 50.4688V48.351L35.2612 31.375C35.8446 30.7917 36.5321 30.4271 37.3237 30.2812C38.1362 30.1146 38.9279 30.1979 39.6987 30.5312Z" fill="white"/>
<path d="M19.0737 30.2187V31.2187H11.9487V60.9062C11.9487 61.4896 12.0529 62.0312 12.2612 62.5312C12.3797 62.7898 12.5177 63.0317 12.6752 63.2568C12.4965 63.1323 12.3273 62.9947 12.1675 62.8438C11.7925 62.4688 11.4904 62.0312 11.2612 61.5312C11.0529 61.0312 10.9487 60.4896 10.9487 59.9062V30.2187H19.0737Z" fill="white"/>
</svg>
