<svg width="399" height="72" viewBox="0 0 399 72" fill="none" xmlns="http://www.w3.org/2000/svg">
<path d="M30.504 56.768C29.224 56.768 28.136 56.5333 27.24 56.064C26.344 55.6373 25.6613 54.9547 25.192 54.016C24.7227 53.0773 24.488 51.8827 24.488 50.432V25.28H18.28V22.336H24.424L25.192 12.992H27.752V22.336H36.456V25.28H27.752V48.896C27.752 50.6027 27.944 51.8613 28.328 52.672C28.712 53.44 29.8 53.824 31.592 53.824H36.456V55.808C35.9013 56.0213 35.2613 56.192 34.536 56.32C33.8533 56.4907 33.1493 56.5973 32.424 56.64C31.7413 56.7253 31.1013 56.768 30.504 56.768ZM44.297 56V22.336H46.857L47.177 28.992H47.561C47.689 28.1813 48.073 27.2 48.713 26.048C49.3957 24.896 50.3983 23.872 51.721 22.976C53.0863 22.0373 54.8143 21.568 56.905 21.568C57.545 21.568 58.2063 21.6107 58.889 21.696C59.5717 21.7387 60.1477 21.824 60.617 21.952V24.768H58.377C56.201 24.768 54.409 25.216 53.001 26.112C51.593 26.9653 50.4837 28.096 49.673 29.504C48.905 30.8693 48.3503 32.32 48.009 33.856C47.7103 35.3493 47.561 36.736 47.561 38.016V56H44.297ZM77.8765 56.768C76.0845 56.768 74.3778 56.5973 72.7565 56.256C71.1778 55.9147 69.7698 55.3813 68.5325 54.656C67.3378 53.9307 66.3992 52.992 65.7165 51.84C65.0338 50.688 64.6925 49.28 64.6925 47.616C64.6925 44.8427 65.4818 42.7093 67.0605 41.216C68.6392 39.68 70.8152 38.592 73.5885 37.952C76.4045 37.2693 79.6258 36.864 83.2525 36.736C86.9218 36.608 90.8045 36.544 94.9005 36.544V33.856C94.9005 31.3813 94.5165 29.4827 93.7485 28.16C93.0232 26.7947 91.7005 25.856 89.7805 25.344C87.9032 24.7893 85.2578 24.512 81.8445 24.512C78.9005 24.512 76.5325 24.7893 74.7405 25.344C72.9485 25.8987 71.6472 26.6453 70.8365 27.584C70.0258 28.5227 69.6205 29.568 69.6205 30.72V32.32H66.5485C66.5058 32.1067 66.4632 31.8933 66.4205 31.68C66.4205 31.4667 66.4205 31.2107 66.4205 30.912C66.4205 28.864 67.0178 27.1573 68.2125 25.792C69.4072 24.384 71.1992 23.3387 73.5885 22.656C76.0205 21.9307 79.0498 21.568 82.6765 21.568C86.1325 21.568 88.9912 21.9307 91.2525 22.656C93.5565 23.3813 95.2845 24.5973 96.4365 26.304C97.5885 27.968 98.1645 30.2933 98.1645 33.28V51.264C98.1645 52.2453 98.3138 52.928 98.6125 53.312C98.9112 53.6533 99.5085 53.824 100.405 53.824H103.477V55.936C102.623 56.2347 101.813 56.4267 101.045 56.512C100.319 56.5973 99.7218 56.64 99.2525 56.64C97.8445 56.64 96.8205 56.3627 96.1805 55.808C95.5832 55.2107 95.1992 54.4213 95.0285 53.44C94.8578 52.4587 94.7725 51.3493 94.7725 50.112H94.3245C93.1725 51.6053 91.6792 52.8427 89.8445 53.824C88.0525 54.8053 86.1112 55.5307 84.0205 56C81.9298 56.512 79.8818 56.768 77.8765 56.768ZM77.9405 53.824C80.0312 53.824 82.0792 53.5467 84.0845 52.992C86.1325 52.4373 87.9672 51.6907 89.5885 50.752C91.2098 49.7707 92.4898 48.64 93.4285 47.36C94.4098 46.0373 94.9005 44.608 94.9005 43.072V39.36C89.0552 39.36 84.1272 39.5307 80.1165 39.872C76.1485 40.2133 73.1618 40.96 71.1565 42.112C69.1512 43.264 68.1485 45.0773 68.1485 47.552C68.1485 49.1307 68.6178 50.3893 69.5565 51.328C70.5378 52.224 71.7752 52.864 73.2685 53.248C74.8045 53.632 76.3618 53.824 77.9405 53.824ZM108.455 56V22.336H111.015L111.335 28.48H111.847C113.127 26.6027 114.577 25.1733 116.199 24.192C117.863 23.168 119.569 22.4853 121.319 22.144C123.068 21.76 124.711 21.568 126.247 21.568C129.148 21.568 131.58 21.9733 133.543 22.784C135.505 23.552 136.999 24.832 138.023 26.624C139.047 28.3733 139.559 30.7413 139.559 33.728V56H136.295V34.432C136.295 32.128 136.017 30.3147 135.463 28.992C134.951 27.6693 134.204 26.688 133.223 26.048C132.241 25.408 131.089 25.0027 129.767 24.832C128.487 24.6187 127.1 24.512 125.607 24.512C123.388 24.512 121.212 25.0027 119.079 25.984C116.945 26.9653 115.175 28.352 113.767 30.144C112.401 31.936 111.719 34.0907 111.719 36.608V56H108.455ZM162.314 56.768C159.839 56.768 157.621 56.5547 155.658 56.128C153.738 55.744 152.095 55.1467 150.73 54.336C149.365 53.5253 148.319 52.5227 147.594 51.328C146.911 50.0907 146.57 48.64 146.57 46.976C146.57 46.7627 146.57 46.528 146.57 46.272C146.613 46.016 146.655 45.8027 146.698 45.632H150.026C150.026 45.76 150.005 45.9307 149.962 46.144C149.962 46.3147 149.962 46.464 149.962 46.592C149.962 48.5973 150.581 50.1333 151.818 51.2C153.098 52.224 154.698 52.928 156.618 53.312C158.538 53.6533 160.479 53.824 162.442 53.824C164.661 53.824 166.666 53.632 168.458 53.248C170.293 52.8213 171.765 52.1387 172.874 51.2C173.983 50.2187 174.538 48.9173 174.538 47.296C174.538 45.4187 174.047 44.0107 173.066 43.072C172.127 42.1333 170.762 41.4507 168.97 41.024C167.178 40.5973 165.023 40.192 162.506 39.808C160.202 39.4667 158.154 39.0613 156.362 38.592C154.57 38.1227 153.055 37.5467 151.818 36.864C150.581 36.1387 149.642 35.2427 149.002 34.176C148.405 33.1093 148.106 31.808 148.106 30.272C148.106 29.0347 148.362 27.904 148.874 26.88C149.386 25.8133 150.197 24.896 151.306 24.128C152.458 23.3173 153.973 22.6987 155.85 22.272C157.77 21.8027 160.138 21.568 162.954 21.568C165.471 21.568 167.605 21.824 169.354 22.336C171.146 22.8053 172.597 23.4667 173.706 24.32C174.858 25.1733 175.69 26.176 176.202 27.328C176.757 28.4373 177.034 29.6107 177.034 30.848C177.034 31.0187 177.034 31.168 177.034 31.296C177.034 31.3813 177.013 31.5733 176.97 31.872H173.642V31.552C173.642 29.5893 173.13 28.1173 172.106 27.136C171.082 26.112 169.759 25.4293 168.138 25.088C166.517 24.704 164.81 24.512 163.018 24.512C161.61 24.512 160.223 24.5973 158.858 24.768C157.493 24.896 156.255 25.1733 155.146 25.6C154.037 25.984 153.162 26.5387 152.522 27.264C151.882 27.9893 151.562 28.9493 151.562 30.144C151.562 31.6373 152.095 32.8107 153.162 33.664C154.229 34.4747 155.615 35.0933 157.322 35.52C159.071 35.9467 160.927 36.3093 162.89 36.608C164.853 36.9067 166.73 37.248 168.522 37.632C170.314 37.9733 171.914 38.4853 173.322 39.168C174.73 39.808 175.839 40.7253 176.65 41.92C177.503 43.1147 177.93 44.6933 177.93 46.656C177.93 48.4053 177.589 49.92 176.906 51.2C176.223 52.48 175.221 53.5253 173.898 54.336C172.575 55.1467 170.933 55.744 168.97 56.128C167.05 56.5547 164.831 56.768 162.314 56.768ZM185.8 56V9.728H189.064V56H185.8ZM211.835 56.768C207.525 56.768 204.219 55.872 201.915 54.08C199.653 52.2453 198.523 49.088 198.523 44.608V22.336H201.787V43.904C201.787 46.208 202.043 48.0213 202.555 49.344C203.109 50.6667 203.877 51.648 204.859 52.288C205.84 52.928 206.971 53.3547 208.251 53.568C209.573 53.7387 210.981 53.824 212.475 53.824C214.736 53.824 216.912 53.3333 219.003 52.352C221.136 51.3707 222.885 49.984 224.251 48.192C225.659 46.3573 226.363 44.2027 226.363 41.728V22.336H229.627V56H227.067L226.747 49.856H226.235C224.955 51.7333 223.483 53.184 221.819 54.208C220.197 55.1893 218.512 55.8507 216.763 56.192C215.056 56.576 213.413 56.768 211.835 56.768ZM256.158 56.768C252.062 56.768 248.713 56.1067 246.11 54.784C243.507 53.4187 241.566 51.4347 240.286 48.832C239.049 46.1867 238.43 42.9653 238.43 39.168C238.43 35.328 239.049 32.1067 240.286 29.504C241.566 26.9013 243.507 24.9387 246.11 23.616C248.755 22.2507 252.105 21.568 256.158 21.568C258.419 21.568 260.489 21.8453 262.366 22.4C264.286 22.9547 265.929 23.7867 267.294 24.896C268.702 26.0053 269.79 27.3707 270.558 28.992C271.326 30.6133 271.71 32.512 271.71 34.688H268.446C268.446 32.2133 267.827 30.2507 266.59 28.8C265.395 27.3067 263.859 26.2187 261.982 25.536C260.105 24.8533 258.163 24.512 256.158 24.512C253.47 24.512 251.038 24.96 248.862 25.856C246.729 26.752 245.043 28.224 243.806 30.272C242.569 32.2773 241.95 35.0293 241.95 38.528V39.808C241.95 43.264 242.569 46.016 243.806 48.064C245.043 50.112 246.729 51.584 248.862 52.48C251.038 53.376 253.47 53.824 256.158 53.824C258.163 53.824 260.105 53.4827 261.982 52.8C263.859 52.1173 265.417 51.0293 266.654 49.536C267.891 48.0427 268.51 46.1013 268.51 43.712H271.71C271.71 45.8453 271.305 47.7227 270.494 49.344C269.726 50.9653 268.638 52.3307 267.23 53.44C265.822 54.5493 264.179 55.3813 262.302 55.936C260.425 56.4907 258.377 56.768 256.158 56.768ZM297.271 56.768C293.431 56.768 290.167 56.128 287.479 54.848C284.834 53.568 282.828 51.6267 281.463 49.024C280.098 46.3787 279.415 43.0933 279.415 39.168C279.415 35.2853 280.076 32.0427 281.399 29.44C282.764 26.8373 284.77 24.8747 287.415 23.552C290.06 22.2293 293.346 21.568 297.271 21.568C301.367 21.568 304.674 22.272 307.191 23.68C309.751 25.088 311.607 26.9653 312.759 29.312C313.954 31.616 314.551 34.176 314.551 36.992V40.192H282.935C282.935 43.52 283.575 46.1867 284.855 48.192C286.178 50.1973 287.948 51.648 290.167 52.544C292.386 53.3973 294.882 53.824 297.655 53.824C300.172 53.824 302.263 53.504 303.927 52.864C305.591 52.224 306.935 51.4347 307.959 50.496C308.983 49.5573 309.73 48.576 310.199 47.552C310.668 46.528 310.924 45.632 310.967 44.864H314.103C314.06 46.0587 313.74 47.3387 313.143 48.704C312.588 50.0693 311.671 51.3707 310.391 52.608C309.154 53.8027 307.447 54.8053 305.271 55.616C303.138 56.384 300.471 56.768 297.271 56.768ZM282.935 37.248H311.159C311.159 34.688 310.754 32.5973 309.943 30.976C309.132 29.312 308.044 28.0107 306.679 27.072C305.314 26.1333 303.778 25.472 302.071 25.088C300.364 24.704 298.615 24.512 296.823 24.512C294.348 24.512 292.087 24.9387 290.039 25.792C287.991 26.6453 286.327 28.0107 285.047 29.888C283.81 31.7653 283.106 34.2187 282.935 37.248ZM323.364 56V22.336H325.924L326.244 28.48H326.756C328.036 26.6027 329.487 25.1733 331.108 24.192C332.772 23.168 334.479 22.4853 336.228 22.144C337.978 21.76 339.62 21.568 341.156 21.568C344.058 21.568 346.49 21.9733 348.452 22.784C350.415 23.552 351.908 24.832 352.932 26.624C353.956 28.3733 354.468 30.7413 354.468 33.728V56H351.204V34.432C351.204 32.128 350.927 30.3147 350.372 28.992C349.86 27.6693 349.114 26.688 348.132 26.048C347.151 25.408 345.999 25.0027 344.676 24.832C343.396 24.6187 342.01 24.512 340.516 24.512C338.298 24.512 336.122 25.0027 333.988 25.984C331.855 26.9653 330.084 28.352 328.676 30.144C327.311 31.936 326.628 34.0907 326.628 36.608V56H323.364ZM372.104 56.768C370.824 56.768 369.736 56.5333 368.84 56.064C367.944 55.6373 367.261 54.9547 366.792 54.016C366.323 53.0773 366.088 51.8827 366.088 50.432V25.28H359.88V22.336H366.024L366.792 12.992H369.352V22.336H378.056V25.28H369.352V48.896C369.352 50.6027 369.544 51.8613 369.928 52.672C370.312 53.44 371.4 53.824 373.192 53.824H378.056V55.808C377.501 56.0213 376.861 56.192 376.136 56.32C375.453 56.4907 374.749 56.5973 374.024 56.64C373.341 56.7253 372.701 56.768 372.104 56.768Z" fill="white"/>
</svg>
