<svg width="460" height="88" viewBox="0 0 460 88" fill="none" xmlns="http://www.w3.org/2000/svg">
<path d="M14.4628 66L0.757213 26.1706H4.92189L12.9483 49.6442C13.6046 51.4615 14.1346 53.0769 14.5385 54.4904C14.9928 55.9038 15.3462 57.0901 15.5986 58.0493C15.851 58.9579 16.0024 59.6142 16.0529 60.018H16.5072C16.7596 59.1598 17.0373 58.125 17.3402 56.9134C17.6935 55.7019 18.0469 54.4651 18.4003 53.2031C18.8041 51.9411 19.1827 50.78 19.5361 49.7199L27.5626 26.1706H31.5001L39.5265 49.6442C40.1828 51.4615 40.7128 53.0769 41.1167 54.4904C41.571 55.9038 41.9244 57.0901 42.1768 58.0493C42.4292 58.9579 42.5806 59.6142 42.6311 60.018H43.0854C43.3378 59.1598 43.6155 58.125 43.9184 56.9134C44.2717 55.7019 44.6251 54.4651 44.9785 53.2031C45.3823 51.9411 45.7609 50.78 46.1143 49.7199L54.1407 26.1706H58.0782L44.3727 66H41.041L32.4844 41.1634C32.1311 40.1033 31.7777 39.0432 31.4243 37.9831C31.071 36.923 30.7176 35.9386 30.3642 35.03C30.0614 34.1213 29.809 33.3641 29.607 32.7583H29.1527C28.9003 33.5156 28.5974 34.399 28.244 35.4086C27.9412 36.4182 27.613 37.4278 27.2597 38.4374C26.9568 39.4471 26.6539 40.3557 26.351 41.1634L17.7945 66H14.4628ZM64.3891 17.0083V11.2535H68.2509V17.0083H64.3891ZM64.3891 66V26.1706H68.2509V66H64.3891ZM97.6154 66.9087C93.4255 66.9087 89.9171 66.1262 87.0901 64.5613C84.3137 62.9459 82.2187 60.5985 80.8053 57.5192C79.3918 54.3894 78.6851 50.5781 78.6851 46.0853C78.6851 41.542 79.4171 37.7307 80.881 34.6514C82.3449 31.572 84.5156 29.2499 87.393 27.685C90.3209 26.0696 93.9303 25.2619 98.2212 25.2619C100.493 25.2619 102.563 25.5396 104.43 26.0949C106.349 26.5997 108.065 27.3569 109.579 28.3665C111.094 29.3761 112.406 30.6634 113.517 32.2283H113.971V11.2535H117.833V66H114.804L114.274 59.488H113.82C112.103 61.9615 109.882 63.8293 107.156 65.0913C104.481 66.3029 101.301 66.9087 97.6154 66.9087ZM97.9183 63.4255C100.947 63.4255 103.673 62.8954 106.096 61.8353C108.519 60.7752 110.438 59.0336 111.851 56.6106C113.264 54.1875 113.971 50.9315 113.971 46.8425V45.3281C113.971 42.2487 113.567 39.649 112.76 37.5288C112.002 35.4086 110.892 33.7175 109.428 32.4555C108.014 31.143 106.349 30.2091 104.43 29.6538C102.512 29.048 100.442 28.7451 98.2212 28.7451C95.3438 28.7451 92.744 29.2752 90.4219 30.3353C88.0998 31.3954 86.2572 33.137 84.8942 35.56C83.5312 37.9326 82.8498 41.1887 82.8498 45.3281V46.8425C82.8498 50.9315 83.506 54.1875 84.8185 56.6106C86.131 59.0336 87.9231 60.7752 90.1947 61.8353C92.5168 62.8954 95.0914 63.4255 97.9183 63.4255ZM136.388 79.7813C134.267 79.7813 132.374 79.327 130.709 78.4183C129.043 77.5601 127.73 76.3486 126.771 74.7837C125.812 73.2188 125.332 71.4772 125.332 69.5589C125.332 67.3377 125.913 65.3942 127.074 63.7284C128.286 62.012 129.876 60.75 131.844 59.9423C130.431 59.387 129.371 58.5288 128.664 57.3678C128.008 56.2067 127.68 55.0204 127.68 53.8089C127.68 52.1935 128.26 50.7295 129.421 49.417C130.582 48.1045 132.173 47.2464 134.192 46.8425C132.425 45.6814 131.062 44.2932 130.103 42.6778C129.194 41.0624 128.74 39.3209 128.74 37.4531C128.74 35.1814 129.295 33.137 130.406 31.3196C131.516 29.4518 133.283 27.9879 135.706 26.9278C138.18 25.8172 141.411 25.2619 145.399 25.2619C147.418 25.2619 149.21 25.4134 150.775 25.7163C152.39 25.9687 153.829 26.3725 155.091 26.9278C157.06 26.423 158.7 25.5901 160.013 24.429C161.325 23.2679 162.209 21.7535 162.663 19.8857H166.525C166.424 21.1477 166.02 22.435 165.313 23.7475C164.657 25.0095 163.723 26.0949 162.512 27.0035C161.3 27.9122 159.811 28.4675 158.044 28.6694C159.457 29.8809 160.467 31.2439 161.073 32.7583C161.729 34.2223 162.057 35.7872 162.057 37.4531C162.057 39.6742 161.502 41.7187 160.391 43.5865C159.331 45.4038 157.564 46.8677 155.091 47.9783C152.668 49.0889 149.437 49.6442 145.399 49.6442H137.524C135.858 49.6442 134.444 49.9976 133.283 50.7043C132.173 51.3605 131.617 52.4459 131.617 53.9603C131.617 55.3738 132.223 56.4591 133.435 57.2163C134.697 57.9231 136.236 58.2764 138.054 58.2764H155.772C158.7 58.2764 161.073 59.286 162.89 61.3053C164.758 63.274 165.692 65.7224 165.692 68.6502C165.692 70.72 165.187 72.5878 164.177 74.2536C163.168 75.97 161.78 77.3077 160.013 78.2669C158.246 79.2765 156.201 79.7813 153.879 79.7813H136.388ZM136.766 76.4495H153.804C155.318 76.4495 156.681 76.1214 157.893 75.4652C159.104 74.8089 160.063 73.9255 160.77 72.8149C161.477 71.7043 161.83 70.4928 161.83 69.1803C161.83 66.9591 161.224 65.1671 160.013 63.8041C158.801 62.4411 157.236 61.7596 155.318 61.7596H136.615C134.596 61.7596 132.854 62.4916 131.39 63.9555C129.926 65.4195 129.194 67.1611 129.194 69.1803C129.194 71.4015 129.926 73.1683 131.39 74.4808C132.854 75.7933 134.646 76.4495 136.766 76.4495ZM145.399 46.3125C149.942 46.3125 153.198 45.5048 155.167 43.8894C157.186 42.274 158.195 40.1286 158.195 37.4531C158.195 34.7776 157.186 32.6321 155.167 31.0168C153.198 29.4014 149.942 28.5937 145.399 28.5937C140.906 28.5937 137.65 29.4014 135.63 31.0168C133.662 32.6321 132.677 34.7776 132.677 37.4531C132.677 39.1189 133.081 40.6334 133.889 41.9963C134.747 43.3593 136.11 44.4194 137.978 45.1766C139.896 45.9339 142.37 46.3125 145.399 46.3125ZM192.209 66.9087C187.666 66.9087 183.804 66.1514 180.624 64.637C177.494 63.1226 175.121 60.8257 173.506 57.7464C171.891 54.6166 171.083 50.7295 171.083 46.0853C171.083 41.4915 171.865 37.655 173.43 34.5757C175.046 31.4963 177.418 29.1742 180.548 27.6093C183.678 26.0444 187.565 25.2619 192.209 25.2619C197.055 25.2619 200.968 26.0949 203.946 27.7607C206.975 29.4266 209.171 31.6478 210.534 34.4242C211.947 37.1502 212.654 40.179 212.654 43.5108V47.2968H175.248C175.248 51.2343 176.005 54.3894 177.519 56.762C179.084 59.1346 181.179 60.851 183.804 61.911C186.429 62.9207 189.382 63.4255 192.663 63.4255C195.642 63.4255 198.115 63.0469 200.084 62.2897C202.053 61.5324 203.643 60.5985 204.855 59.488C206.066 58.3774 206.949 57.2163 207.505 56.0048C208.06 54.7932 208.363 53.7331 208.413 52.8245H212.124C212.073 54.238 211.695 55.7524 210.988 57.3678C210.332 58.9832 209.246 60.5228 207.732 61.9868C206.268 63.4002 204.249 64.5865 201.674 65.5457C199.15 66.4543 195.995 66.9087 192.209 66.9087ZM175.248 43.8137H208.641C208.641 40.7848 208.161 38.3112 207.202 36.393C206.243 34.4242 204.955 32.8845 203.34 31.774C201.725 30.6634 199.907 29.8809 197.888 29.4266C195.869 28.9723 193.799 28.7451 191.679 28.7451C188.751 28.7451 186.076 29.2499 183.653 30.2595C181.229 31.2692 179.261 32.8845 177.746 35.1057C176.282 37.3269 175.449 40.2295 175.248 43.8137ZM232.774 66.9087C231.259 66.9087 229.972 66.631 228.912 66.0757C227.852 65.5709 227.044 64.7632 226.489 63.6526C225.934 62.5421 225.656 61.1286 225.656 59.4122V29.6538H218.311V26.1706H225.58L226.489 15.1153H229.518V26.1706H239.816V29.6538H229.518V57.5949C229.518 59.6142 229.745 61.1034 230.199 62.0625C230.654 62.9711 231.941 63.4255 234.061 63.4255H239.816V65.7728C239.16 66.0252 238.402 66.2272 237.544 66.3786C236.737 66.5805 235.904 66.7067 235.045 66.7572C234.238 66.8582 233.481 66.9087 232.774 66.9087ZM267.493 66L248.866 26.1706H253.182L263.934 49.2656C264.338 50.0733 264.843 51.1586 265.449 52.5216C266.055 53.8846 266.686 55.3233 267.342 56.8377C267.998 58.3017 268.579 59.6142 269.083 60.7752H269.538C269.942 59.8161 270.421 58.6803 270.976 57.3678C271.532 56.0553 272.137 54.6923 272.794 53.2788C273.45 51.8149 274.056 50.4771 274.611 49.2656L285.363 26.1706H289.452L270.825 66H267.493ZM295.712 17.0083V11.2535H299.574V17.0083H295.712ZM295.712 66V26.1706H299.574V66H295.712ZM327.121 66.9087C324.193 66.9087 321.568 66.6563 319.246 66.1514C316.974 65.6971 315.031 64.9904 313.415 64.0312C311.8 63.0721 310.563 61.8858 309.705 60.4723C308.897 59.0084 308.493 57.292 308.493 55.3233C308.493 55.0709 308.493 54.7932 308.493 54.4904C308.544 54.1875 308.594 53.9351 308.645 53.7331H312.582C312.582 53.8846 312.557 54.0865 312.507 54.3389C312.507 54.5408 312.507 54.7175 312.507 54.869C312.507 57.2416 313.239 59.0589 314.702 60.3209C316.217 61.5324 318.11 62.3654 320.382 62.8197C322.653 63.2236 324.95 63.4255 327.272 63.4255C329.897 63.4255 332.27 63.1983 334.39 62.744C336.561 62.2392 338.302 61.4315 339.615 60.3209C340.927 59.1598 341.584 57.6202 341.584 55.7019C341.584 53.4807 341.003 51.8149 339.842 50.7043C338.731 49.5937 337.116 48.786 334.996 48.2812C332.876 47.7764 330.326 47.2968 327.348 46.8425C324.622 46.4387 322.199 45.9591 320.079 45.4038C317.958 44.8485 316.166 44.167 314.702 43.3593C313.239 42.5012 312.128 41.4411 311.371 40.179C310.664 38.917 310.311 37.3773 310.311 35.56C310.311 34.0961 310.614 32.7583 311.219 31.5468C311.825 30.2848 312.784 29.1994 314.097 28.2908C315.46 27.3317 317.252 26.5997 319.473 26.0949C321.745 25.5396 324.546 25.2619 327.878 25.2619C330.856 25.2619 333.38 25.5648 335.45 26.1706C337.57 26.7259 339.287 27.5083 340.599 28.518C341.962 29.5276 342.947 30.7139 343.552 32.0769C344.209 33.3894 344.537 34.7776 344.537 36.2415C344.537 36.4434 344.537 36.6201 344.537 36.7716C344.537 36.8725 344.511 37.0997 344.461 37.4531H340.523V37.0745C340.523 34.7523 339.918 33.0107 338.706 31.8497C337.495 30.6381 335.93 29.8305 334.011 29.4266C332.093 28.9723 330.074 28.7451 327.954 28.7451C326.288 28.7451 324.647 28.8461 323.032 29.048C321.416 29.1994 319.952 29.5276 318.64 30.0324C317.327 30.4867 316.293 31.143 315.535 32.0011C314.778 32.8593 314.4 33.9951 314.4 35.4086C314.4 37.1754 315.031 38.5636 316.293 39.5733C317.555 40.5324 319.195 41.2644 321.215 41.7692C323.284 42.274 325.48 42.7031 327.802 43.0564C330.124 43.4098 332.346 43.8137 334.466 44.268C336.586 44.6718 338.479 45.2776 340.145 46.0853C341.811 46.8425 343.123 47.9278 344.082 49.3413C345.092 50.7548 345.597 52.6226 345.597 54.9447C345.597 57.0144 345.193 58.8065 344.385 60.3209C343.578 61.8353 342.391 63.0721 340.826 64.0312C339.261 64.9904 337.318 65.6971 334.996 66.1514C332.724 66.6563 330.099 66.9087 327.121 66.9087ZM354.908 17.0083V11.2535H358.769V17.0083H354.908ZM354.908 66V26.1706H358.769V66H354.908ZM390.178 66.9087C385.484 66.9087 381.571 66.1262 378.441 64.5613C375.362 62.9459 373.04 60.5985 371.475 57.5192C369.961 54.3894 369.203 50.5781 369.203 46.0853C369.203 41.542 369.961 37.7307 371.475 34.6514C373.04 31.572 375.362 29.2499 378.441 27.685C381.571 26.0696 385.484 25.2619 390.178 25.2619C394.873 25.2619 398.76 26.0696 401.839 27.685C404.969 29.2499 407.291 31.572 408.806 34.6514C410.371 37.7307 411.153 41.542 411.153 46.0853C411.153 50.5781 410.371 54.3894 408.806 57.5192C407.291 60.5985 404.969 62.9459 401.839 64.5613C398.76 66.1262 394.873 66.9087 390.178 66.9087ZM390.178 63.4255C393.409 63.4255 396.286 62.8954 398.811 61.8353C401.335 60.7752 403.329 59.0336 404.792 56.6106C406.256 54.1875 406.988 50.9315 406.988 46.8425V45.3281C406.988 41.1887 406.256 37.9326 404.792 35.56C403.329 33.137 401.335 31.3954 398.811 30.3353C396.286 29.2752 393.409 28.7451 390.178 28.7451C386.998 28.7451 384.121 29.2752 381.546 30.3353C379.022 31.3954 377.028 33.137 375.564 35.56C374.1 37.9326 373.368 41.1887 373.368 45.3281V46.8425C373.368 50.9315 374.1 54.1875 375.564 56.6106C377.028 59.0336 379.022 60.7752 381.546 61.8353C384.121 62.8954 386.998 63.4255 390.178 63.4255ZM421.572 66V26.1706H424.601L424.979 33.4398H425.585C427.1 31.2187 428.816 29.5276 430.734 28.3665C432.703 27.155 434.722 26.3473 436.792 25.9434C438.862 25.4891 440.805 25.2619 442.622 25.2619C446.055 25.2619 448.932 25.7415 451.255 26.7006C453.577 27.6093 455.344 29.1237 456.555 31.2439C457.767 33.3136 458.372 36.1153 458.372 39.649V66H454.511V40.4819C454.511 37.756 454.182 35.6105 453.526 34.0456C452.92 32.4807 452.037 31.3196 450.876 30.5624C449.715 29.8052 448.352 29.3256 446.787 29.1237C445.273 28.8713 443.632 28.7451 441.865 28.7451C439.24 28.7451 436.666 29.3256 434.142 30.4867C431.618 31.6478 429.523 33.2884 427.857 35.4086C426.241 37.5288 425.434 40.0781 425.434 43.0564V66H421.572Z" fill="white"/>
<path d="M240.433 49V42.9414H245.743V49H240.433Z" fill="white"/>
</svg>
