<svg width="461" height="61" viewBox="0 0 461 61" fill="none" xmlns="http://www.w3.org/2000/svg">
<path d="M14.2557 48L0.815497 14.7466H10.1542L16.1486 31.0894C16.5272 32.0569 16.8638 33.0034 17.1582 33.9288C17.4527 34.8543 17.7051 35.6956 17.9154 36.4528C18.1678 37.1679 18.3361 37.7569 18.4202 38.2196H18.925C19.0512 37.7989 19.2195 37.231 19.4298 36.5159C19.6822 35.8008 19.9556 34.9805 20.2501 34.055C20.5866 33.1296 20.9232 32.1621 21.2597 31.1525L26.7493 14.7466H36.3404L41.8301 31.1525C41.9563 31.4469 42.1456 32.0148 42.398 32.8561C42.6504 33.6554 42.9238 34.5388 43.2183 35.5063C43.5127 36.4738 43.7862 37.3783 44.0386 38.2196H44.5434C44.7537 37.5045 44.9851 36.7052 45.2375 35.8218C45.5319 34.9384 45.8264 34.0761 46.1209 33.2347C46.4153 32.3934 46.6467 31.6993 46.8149 31.1525L52.7463 14.7466H61.5171L48.0138 48H39.4954L34.2582 32.6668C33.9216 31.6993 33.5641 30.6897 33.1855 29.6381C32.849 28.5864 32.5124 27.5979 32.1759 26.6724C31.8814 25.747 31.629 24.9898 31.4187 24.4008H30.977C30.7667 25.0739 30.4932 25.8942 30.1567 26.8617C29.8202 27.8292 29.4836 28.8388 29.1471 29.8905C28.8106 30.9001 28.4951 31.8466 28.2006 32.7299L23.0265 48H14.2557ZM66.2924 9.32008V2.31605H75.0002V9.32008H66.2924ZM66.2924 48V14.7466H75.0002V48H66.2924ZM99.6893 48.7572C96.2398 48.7572 93.2321 48.1262 90.6661 46.8642C88.1421 45.6022 86.165 43.6882 84.7347 41.1222C83.3465 38.5141 82.6524 35.275 82.6524 31.4049C82.6524 27.4506 83.3465 24.1905 84.7347 21.6245C86.1229 19.0584 88.0369 17.1444 90.4768 15.8824C92.9587 14.6204 95.8402 13.9894 99.1214 13.9894C100.888 13.9894 102.571 14.1787 104.169 14.5573C105.768 14.9359 107.219 15.5038 108.523 16.261C109.827 16.9761 110.942 17.8806 111.867 18.9743H112.309V2.31605H121.017V48H114.013L113.256 42.7628H112.751C111.194 44.9502 109.301 46.5066 107.072 47.4321C104.842 48.3155 102.382 48.7572 99.6893 48.7572ZM101.898 41.4377C104.085 41.4377 105.957 41.0591 107.514 40.3019C109.07 39.5447 110.269 38.451 111.11 37.0207C111.952 35.5484 112.372 33.7606 112.372 31.6573V31.1525C112.372 29.5539 112.12 28.1447 111.615 26.9248C111.152 25.7049 110.458 24.6953 109.533 23.896C108.607 23.0547 107.493 22.4237 106.189 22.0031C104.884 21.5403 103.412 21.309 101.772 21.309C99.6682 21.309 97.8384 21.6876 96.2819 22.4447C94.7675 23.2019 93.5897 24.2957 92.7483 25.7259C91.9491 27.1141 91.5494 28.8388 91.5494 30.9001V31.8466C91.5494 33.9078 91.9701 35.6536 92.8114 37.0838C93.6528 38.5141 94.8306 39.6078 96.345 40.365C97.9015 41.0801 99.7524 41.4377 101.898 41.4377ZM136.509 60.1151C134.742 60.1151 133.101 59.8417 131.587 59.2948C130.073 58.7479 128.853 57.8856 127.927 56.7077C127.002 55.5299 126.539 54.0155 126.539 52.1646C126.539 50.4398 127.086 48.9886 128.18 47.8107C129.315 46.6328 130.704 45.7495 132.344 45.1605C131.166 44.5716 130.262 43.7723 129.631 42.7628C129.042 41.7532 128.748 40.6174 128.748 39.3554C128.748 37.7148 129.315 36.3266 130.451 35.1908C131.629 34.055 133.122 33.3399 134.931 33.0454C133.333 32.12 132.071 30.9421 131.145 29.5119C130.22 28.0816 129.757 26.5252 129.757 24.8425C129.757 22.4027 130.409 20.3835 131.713 18.785C133.017 17.1865 134.91 15.9876 137.392 15.1883C139.916 14.3891 143.008 13.9894 146.668 13.9894C148.056 13.9894 149.402 14.0736 150.706 14.2418C152.01 14.4101 153.209 14.6415 154.303 14.9359C156.112 14.0525 157.437 13.064 158.278 11.9703C159.161 10.8765 159.666 9.90901 159.792 9.06768H167.68C167.638 10.5821 167.301 11.9072 166.67 13.0429C166.039 14.1787 165.156 15.1252 164.02 15.8824C162.926 16.6396 161.58 17.1865 159.982 17.523C161.117 18.4064 161.98 19.458 162.569 20.678C163.2 21.8979 163.515 23.2861 163.515 24.8425C163.515 27.1562 162.926 29.1333 161.748 30.7739C160.571 32.3724 158.825 33.5923 156.511 34.4336C154.198 35.2329 151.337 35.6325 147.93 35.6325H140.61C139.516 35.6325 138.675 35.8429 138.086 36.2635C137.497 36.6842 137.203 37.2731 137.203 38.0303C137.203 38.7034 137.497 39.2713 138.086 39.734C138.675 40.1967 139.559 40.4281 140.736 40.4281H158.089C160.991 40.4281 163.263 41.3115 164.903 43.0782C166.586 44.845 167.427 47.0745 167.427 49.7668C167.427 51.786 166.902 53.5738 165.85 55.1302C164.798 56.6867 163.368 57.9066 161.559 58.79C159.792 59.6734 157.773 60.1151 155.502 60.1151H136.509ZM138.528 54.1837H155.186C155.901 54.1837 156.553 54.0365 157.142 53.742C157.731 53.4896 158.194 53.09 158.53 52.5432C158.909 52.0384 159.098 51.4494 159.098 50.7764C159.098 49.6827 158.72 48.8413 157.963 48.2524C157.247 47.7055 156.385 47.4321 155.375 47.4321H138.717C137.623 47.4321 136.719 47.7055 136.004 48.2524C135.289 48.8413 134.931 49.6616 134.931 50.7133C134.931 51.7649 135.268 52.6063 135.941 53.2372C136.614 53.8682 137.476 54.1837 138.528 54.1837ZM146.668 29.8905C149.36 29.8905 151.442 29.4908 152.915 28.6916C154.429 27.8923 155.186 26.6093 155.186 24.8425C155.186 23.0757 154.429 21.7927 152.915 20.9935C151.442 20.1942 149.36 19.7946 146.668 19.7946C143.975 19.7946 141.872 20.1942 140.358 20.9935C138.885 21.7927 138.149 23.0757 138.149 24.8425C138.149 26.0624 138.486 27.051 139.159 27.8082C139.832 28.5233 140.799 29.0492 142.061 29.3857C143.323 29.7222 144.859 29.8905 146.668 29.8905ZM191.899 48.7572C187.608 48.7572 183.907 48.1472 180.794 46.9273C177.723 45.6653 175.346 43.7513 173.663 41.1853C171.981 38.6192 171.139 35.3591 171.139 31.4049C171.139 27.5348 171.96 24.3167 173.6 21.7507C175.241 19.1425 177.597 17.2075 180.667 15.9455C183.738 14.6415 187.377 13.9894 191.584 13.9894C196.001 13.9894 199.702 14.6415 202.689 15.9455C205.718 17.2075 207.989 19.0794 209.504 21.5614C211.018 24.0012 211.775 26.9879 211.775 30.5215V33.5502H180.289C180.415 35.6115 180.962 37.2731 181.929 38.5351C182.939 39.755 184.306 40.6384 186.031 41.1853C187.798 41.7321 189.838 42.0056 192.152 42.0056C193.077 42.0056 194.108 41.9004 195.243 41.6901C196.421 41.4797 197.536 41.1642 198.588 40.7436C199.681 40.3229 200.607 39.776 201.364 39.103C202.121 38.3879 202.563 37.5255 202.689 36.5159H211.523C211.523 38.1986 211.081 39.7971 210.198 41.3115C209.357 42.7838 208.095 44.0878 206.412 45.2236C204.729 46.3173 202.668 47.1797 200.228 47.8107C197.788 48.4417 195.012 48.7572 191.899 48.7572ZM180.289 27.7451H202.563C202.563 26.5252 202.268 25.4735 201.68 24.5901C201.133 23.7067 200.354 22.9916 199.345 22.4447C198.335 21.8558 197.178 21.4352 195.874 21.1828C194.57 20.8883 193.182 20.7411 191.71 20.7411C189.564 20.7411 187.65 21.0145 185.968 21.5614C184.327 22.0662 183.023 22.8444 182.056 23.896C181.088 24.9477 180.499 26.2307 180.289 27.7451ZM233.049 48.7572C230.609 48.7572 228.632 48.4207 227.117 47.7476C225.603 47.0745 224.488 45.9598 223.773 44.4033C223.1 42.8048 222.764 40.6384 222.764 37.9041V21.4983H216.391V14.7466H223.016L224.783 5.02932H231.471V14.7466H240.495V21.4983H231.471V37.2731C231.471 38.8296 231.745 40.0074 232.292 40.8067C232.881 41.6059 234.164 42.0056 236.141 42.0056H240.495V47.6845C239.906 47.8948 239.148 48.0841 238.223 48.2524C237.34 48.4207 236.435 48.5469 235.51 48.631C234.584 48.7151 233.764 48.7572 233.049 48.7572ZM247.891 48V38.1565H258.365V48H247.891ZM269.567 48L253.792 14.7466H263.194L270.514 30.9001C270.808 31.5311 271.166 32.3514 271.586 33.3609C272.007 34.3705 272.428 35.4012 272.848 36.4528C273.311 37.5045 273.711 38.451 274.047 39.2923H274.552C274.888 38.451 275.246 37.5045 275.625 36.4528C276.045 35.4012 276.445 34.3705 276.824 33.3609C277.244 32.3514 277.602 31.5311 277.896 30.9001L285.216 14.7466H294.365L278.59 48H269.567ZM299.181 9.32008V2.31605H307.889V9.32008H299.181ZM299.181 48V14.7466H307.889V48H299.181ZM333.272 48.7572C330.832 48.7572 328.497 48.5469 326.268 48.1262C324.038 47.7476 322.061 47.1587 320.336 46.3594C318.654 45.5602 317.308 44.5295 316.298 43.2675C315.331 41.9635 314.847 40.4281 314.847 38.6613C314.847 38.451 314.847 38.2617 314.847 38.0934C314.889 37.9251 314.931 37.7569 314.973 37.5886H323.87C323.87 37.6307 323.849 37.7148 323.807 37.841C323.807 37.9672 323.807 38.0724 323.807 38.1565C323.807 39.2082 324.249 40.0495 325.132 40.6805C326.057 41.3115 327.235 41.7742 328.666 42.0687C330.138 42.3211 331.694 42.4473 333.335 42.4473C334.976 42.4473 336.532 42.3631 338.004 42.1949C339.519 41.9845 340.739 41.627 341.664 41.1222C342.589 40.5753 343.052 39.776 343.052 38.7244C343.052 37.6307 342.547 36.8524 341.538 36.3897C340.528 35.8849 339.056 35.5063 337.121 35.2539C335.228 34.9595 332.914 34.6229 330.18 34.2443C328.161 33.9499 326.289 33.5713 324.564 33.1085C322.881 32.6458 321.388 32.0569 320.084 31.3418C318.822 30.5846 317.834 29.6381 317.118 28.5023C316.445 27.3244 316.109 25.8942 316.109 24.2115C316.109 22.4027 316.508 20.8673 317.308 19.6053C318.149 18.3012 319.327 17.2496 320.841 16.4503C322.398 15.609 324.27 14.999 326.457 14.6204C328.645 14.1998 331.105 13.9894 333.84 13.9894C336.28 13.9894 338.509 14.1998 340.528 14.6204C342.589 14.999 344.377 15.5879 345.892 16.3872C347.406 17.1865 348.584 18.175 349.425 19.3529C350.309 20.5307 350.75 21.8769 350.75 23.3912C350.75 23.5595 350.75 23.7278 350.75 23.896C350.75 24.0222 350.729 24.1695 350.687 24.3377H341.79V24.0853C341.79 23.1599 341.412 22.4237 340.654 21.8769C339.897 21.33 338.909 20.9304 337.689 20.678C336.511 20.4256 335.207 20.2994 333.777 20.2994C333.272 20.2994 332.515 20.3204 331.505 20.3625C330.538 20.4045 329.528 20.5307 328.476 20.7411C327.467 20.9093 326.604 21.2038 325.889 21.6245C325.174 22.0031 324.817 22.5709 324.817 23.3281C324.817 24.2536 325.342 24.9477 326.394 25.4104C327.446 25.8732 328.813 26.2307 330.495 26.4831C332.22 26.6934 334.071 26.9458 336.048 27.2403C338.194 27.5348 340.213 27.8713 342.106 28.2499C344.041 28.6285 345.723 29.1754 347.154 29.8905C348.584 30.6056 349.699 31.5942 350.498 32.8561C351.339 34.0761 351.76 35.6956 351.76 37.7148C351.76 39.776 351.339 41.5218 350.498 42.952C349.699 44.3402 348.5 45.476 346.901 46.3594C345.345 47.2007 343.41 47.8107 341.096 48.1893C338.825 48.5679 336.216 48.7572 333.272 48.7572ZM358.891 9.32008V2.31605H367.599V9.32008H358.891ZM358.891 48V14.7466H367.599V48H358.891ZM395.632 48.7572C391.384 48.7572 387.724 48.1052 384.653 46.8011C381.624 45.4971 379.29 43.562 377.649 40.996C376.05 38.3879 375.251 35.1698 375.251 31.3418C375.251 27.4717 376.05 24.2536 377.649 21.6876C379.29 19.1215 381.624 17.2075 384.653 15.9455C387.724 14.6415 391.384 13.9894 395.632 13.9894C399.881 13.9894 403.52 14.6415 406.548 15.9455C409.619 17.2075 411.954 19.1215 413.552 21.6876C415.193 24.2536 416.013 27.4717 416.013 31.3418C416.013 35.1698 415.193 38.3879 413.552 40.996C411.954 43.562 409.619 45.4971 406.548 46.8011C403.52 48.1052 399.881 48.7572 395.632 48.7572ZM395.632 42.0056C397.988 42.0056 400.007 41.627 401.69 40.8698C403.415 40.0705 404.719 38.9347 405.602 37.4624C406.527 35.948 406.99 34.1181 406.99 31.9728V30.7108C406.99 28.5233 406.527 26.6934 405.602 25.2211C404.719 23.7488 403.415 22.634 401.69 21.8769C400.007 21.1197 397.988 20.7411 395.632 20.7411C393.277 20.7411 391.236 21.1197 389.512 21.8769C387.829 22.634 386.525 23.7488 385.599 25.2211C384.716 26.6934 384.274 28.5233 384.274 30.7108V31.9728C384.274 34.1181 384.716 35.948 385.599 37.4624C386.525 38.9347 387.829 40.0705 389.512 40.8698C391.236 41.627 393.277 42.0056 395.632 42.0056ZM423.654 48V14.7466H430.658L431.289 20.4256H431.857C433.077 18.785 434.465 17.502 436.022 16.5765C437.578 15.651 439.219 14.999 440.944 14.6204C442.71 14.1998 444.414 13.9894 446.055 13.9894C449.167 13.9894 451.755 14.4732 453.816 15.4407C455.919 16.4082 457.497 17.8806 458.548 19.8577C459.6 21.8348 460.126 24.3588 460.126 27.4296V48H451.418V28.944C451.418 27.5137 451.208 26.3148 450.787 25.3473C450.408 24.3377 449.841 23.5385 449.083 22.9495C448.368 22.3606 447.485 21.94 446.433 21.6876C445.424 21.4352 444.288 21.309 443.026 21.309C441.175 21.309 439.429 21.6876 437.789 22.4447C436.19 23.2019 434.886 24.2536 433.876 25.5997C432.867 26.9458 432.362 28.5233 432.362 30.3322V48H423.654Z" fill="white"/>
</svg>
