<svg width="460" height="88" viewBox="0 0 460 88" fill="none" xmlns="http://www.w3.org/2000/svg">
<path d="M14.1977 62L0.56791 24.6599H6.67294L13.9138 45.4596C14.4817 46.9741 14.955 48.3465 15.3336 49.577C15.7122 50.8074 16.0198 51.8486 16.2564 52.7005C16.493 53.5523 16.635 54.1912 16.6824 54.6172H17.1793C17.3686 53.9546 17.6052 53.1027 17.8892 52.0616C18.2204 51.0204 18.5517 49.9319 18.883 48.7961C19.2616 47.6603 19.6166 46.5718 19.9478 45.5306L27.0467 24.6599H33.0098L40.1086 45.4596C40.5819 46.7374 40.9842 47.9916 41.3154 49.222C41.694 50.4052 42.0253 51.47 42.3093 52.4165C42.5932 53.3157 42.7825 54.0493 42.8772 54.6172H43.3741C43.6107 53.8126 43.871 52.8661 44.155 51.7776C44.4863 50.6891 44.8175 49.6006 45.1488 48.5121C45.5274 47.4236 45.8587 46.4298 46.1427 45.5306L53.3835 24.6599H59.0626L45.4328 62H40.2506L32.8678 40.7034C32.5365 39.6622 32.1816 38.621 31.8029 37.5799C31.4717 36.4914 31.1404 35.4975 30.8091 34.5984C30.4778 33.6992 30.2175 32.9419 30.0282 32.3267H29.6023C29.3657 33.0366 29.0817 33.8885 28.7504 34.8823C28.4192 35.8761 28.0879 36.8937 27.7566 37.9348C27.4253 38.9287 27.1177 39.8515 26.8337 40.7034L19.5219 62H14.1977ZM64.5177 16.8512V10.6751H70.1258V16.8512H64.5177ZM64.5177 62V24.6599H70.1258V62H64.5177ZM97.549 62.8519C93.621 62.8519 90.3082 62.1183 87.6106 60.6512C84.913 59.1841 82.8544 57.0071 81.4346 54.1203C80.0148 51.1861 79.3049 47.5893 79.3049 43.33C79.3049 39.0233 80.0148 35.4266 81.4346 32.5397C82.9017 29.6528 84.984 27.4758 87.6816 26.0087C90.4265 24.5416 93.763 23.8081 97.691 23.8081C99.7734 23.8081 101.69 24.0447 103.441 24.518C105.239 24.9912 106.849 25.6774 108.268 26.5766C109.735 27.4758 110.99 28.6116 112.031 29.9841H112.457V10.6751H118.136V62H113.663L113.025 55.966H112.528C110.871 58.3322 108.789 60.0833 106.281 61.2191C103.772 62.3076 100.862 62.8519 97.549 62.8519ZM98.5429 57.9536C101.24 57.9536 103.63 57.4804 105.713 56.5339C107.842 55.5874 109.499 54.0966 110.682 52.0616C111.912 49.9792 112.528 47.258 112.528 43.8979V42.7621C112.528 40.2065 112.173 38.0531 111.463 36.3021C110.8 34.5037 109.854 33.0603 108.623 31.9718C107.393 30.8359 105.926 30.0077 104.222 29.4872C102.518 28.9193 100.673 28.6353 98.6849 28.6353C96.0819 28.6353 93.763 29.1086 91.728 30.0551C89.693 31.0016 88.0839 32.4924 86.9007 34.5274C85.7649 36.5624 85.197 39.2836 85.197 42.6911V43.9689C85.197 47.329 85.7649 50.0502 86.9007 52.1326C88.0366 54.1676 89.5983 55.6583 91.586 56.6049C93.621 57.504 95.94 57.9536 98.5429 57.9536ZM136.135 75.2749C134.052 75.2749 132.159 74.8963 130.456 74.1391C128.799 73.4292 127.474 72.3644 126.48 70.9446C125.534 69.5248 125.061 67.8211 125.061 65.8334C125.061 63.8457 125.676 62.0947 126.906 60.5802C128.137 59.0658 129.722 57.93 131.662 57.1728C130.29 56.6049 129.273 55.753 128.61 54.6172C127.947 53.434 127.616 52.2272 127.616 50.9967C127.616 49.435 128.184 47.9916 129.32 46.6664C130.503 45.294 132.159 44.4421 134.289 44.1108C132.396 43.0223 131 41.7445 130.101 40.2774C129.202 38.763 128.752 37.1303 128.752 35.3792C128.752 33.0129 129.367 30.9543 130.598 29.2032C131.875 27.4522 133.887 26.127 136.632 25.2278C139.377 24.2813 142.997 23.8081 147.493 23.8081C149.528 23.8081 151.374 23.9264 153.03 24.163C154.686 24.3523 156.177 24.6599 157.502 25.0859C159.679 24.4706 161.454 23.5951 162.827 22.4593C164.246 21.3235 165.145 20.022 165.524 18.5549H171.132C170.99 19.88 170.564 21.1578 169.854 22.3883C169.145 23.6188 168.127 24.6599 166.802 25.5118C165.524 26.3637 163.962 26.9316 162.117 27.2155C163.584 28.2094 164.625 29.3925 165.24 30.765C165.903 32.1374 166.234 33.6755 166.234 35.3792C166.234 37.6509 165.642 39.6622 164.459 41.4133C163.276 43.1643 161.359 44.5131 158.709 45.4596C156.059 46.4061 152.557 46.8794 148.203 46.8794H138.477C137.058 46.8794 135.874 47.2107 134.928 47.8732C133.981 48.4885 133.508 49.3877 133.508 50.5708C133.508 51.754 134.029 52.6768 135.07 53.3394C136.111 53.9546 137.46 54.2622 139.116 54.2622H160.2C163.276 54.2622 165.737 55.2324 167.583 57.1728C169.428 59.1131 170.351 61.5267 170.351 64.4136C170.351 66.496 169.807 68.3417 168.719 69.9507C167.63 71.6071 166.187 72.9086 164.388 73.8551C162.59 74.8016 160.531 75.2749 158.212 75.2749H136.135ZM137.058 70.8736H158.07C159.348 70.8736 160.46 70.6133 161.407 70.0927C162.401 69.5721 163.158 68.8622 163.678 67.9631C164.199 67.0639 164.459 66.0937 164.459 65.0525C164.459 63.2541 163.962 61.8344 162.968 60.7932C162.022 59.752 160.721 59.2314 159.064 59.2314H136.987C135.33 59.2314 133.887 59.7993 132.656 60.9352C131.473 62.0237 130.882 63.3961 130.882 65.0525C130.882 66.7562 131.473 68.1524 132.656 69.2409C133.839 70.3293 135.307 70.8736 137.058 70.8736ZM147.493 42.4781C152.036 42.4781 155.325 41.8629 157.36 40.6324C159.395 39.4019 160.413 37.6509 160.413 35.3792C160.413 33.0603 159.395 31.2855 157.36 30.0551C155.325 28.8246 152.036 28.2094 147.493 28.2094C142.95 28.2094 139.661 28.8246 137.626 30.0551C135.59 31.2855 134.573 33.0603 134.573 35.3792C134.573 36.8937 134.975 38.1951 135.78 39.2836C136.632 40.3248 138.004 41.1293 139.897 41.6972C141.79 42.2178 144.322 42.4781 147.493 42.4781ZM196.159 62.8519C191.71 62.8519 187.924 62.142 184.801 60.7222C181.677 59.3024 179.287 57.1491 177.631 54.2622C176.022 51.3754 175.217 47.7313 175.217 43.33C175.217 39.0233 176.022 35.4266 177.631 32.5397C179.24 29.6055 181.583 27.4285 184.659 26.0087C187.782 24.5416 191.592 23.8081 196.088 23.8081C200.773 23.8081 204.607 24.5653 207.588 26.0797C210.57 27.5941 212.77 29.6765 214.19 32.3267C215.657 34.977 216.391 37.9821 216.391 41.3423V44.8917H181.18C181.228 48.1099 181.914 50.7128 183.239 52.7005C184.612 54.6408 186.434 56.0369 188.705 56.8888C191.024 57.7407 193.651 58.1666 196.585 58.1666C198.809 58.1666 200.75 57.9063 202.406 57.3857C204.062 56.8178 205.459 56.1079 206.594 55.2561C207.778 54.3569 208.677 53.4104 209.292 52.4165C209.955 51.3754 210.309 50.3815 210.357 49.435H215.965C215.918 50.9494 215.515 52.5112 214.758 54.1203C214.048 55.682 212.912 57.1254 211.351 58.4506C209.789 59.7284 207.754 60.7932 205.246 61.6451C202.737 62.4496 199.708 62.8519 196.159 62.8519ZM181.18 40.5614H210.499C210.499 38.1951 210.073 36.2311 209.221 34.6693C208.416 33.1076 207.328 31.8771 205.955 30.9779C204.583 30.0787 202.998 29.4398 201.199 29.0612C199.448 28.6353 197.65 28.4223 195.804 28.4223C193.154 28.4223 190.74 28.8483 188.563 29.7001C186.434 30.552 184.73 31.8771 183.452 33.6755C182.174 35.4266 181.417 37.7219 181.18 40.5614ZM236.707 62.8519C234.862 62.8519 233.324 62.5679 232.093 62C230.863 61.3848 229.94 60.4382 229.325 59.1605C228.709 57.8827 228.402 56.2026 228.402 54.1203V29.2742H221.445V24.6599H228.473L229.68 14.0826H234.01V24.6599H243.877V29.2742H234.01V52.7715C234.01 54.6172 234.247 55.9896 234.72 56.8888C235.24 57.7407 236.542 58.1666 238.624 58.1666H243.877V61.716C243.215 61.9527 242.458 62.1656 241.606 62.3549C240.754 62.5442 239.902 62.6626 239.05 62.7099C238.198 62.8045 237.417 62.8519 236.707 62.8519ZM269.701 62L252.095 24.6599H258.271L267.784 45.1757C268.115 45.8856 268.541 46.8794 269.062 48.1572C269.63 49.3877 270.198 50.6655 270.765 51.9906C271.381 53.3157 271.901 54.4989 272.327 55.54H272.824C273.203 54.5935 273.629 53.5287 274.102 52.3455C274.622 51.1151 275.143 49.8609 275.664 48.5831C276.232 47.3053 276.752 46.1695 277.225 45.1757L286.738 24.6599H292.63L275.096 62H269.701ZM298.09 16.8512V10.6751H303.698V16.8512H298.09ZM298.09 62V24.6599H303.698V62H298.09ZM330.198 62.8519C327.454 62.8519 324.945 62.6152 322.674 62.142C320.402 61.716 318.438 61.0535 316.782 60.1543C315.173 59.2551 313.918 58.1193 313.019 56.7468C312.12 55.3744 311.67 53.7416 311.67 51.8486C311.67 51.612 311.67 51.3754 311.67 51.1387C311.718 50.8548 311.765 50.6181 311.812 50.4288H317.562C317.562 50.5235 317.539 50.6655 317.492 50.8548C317.492 51.0441 317.492 51.2097 317.492 51.3517C317.492 53.2447 318.13 54.7118 319.408 55.753C320.686 56.7468 322.295 57.4331 324.235 57.8117C326.223 58.1429 328.258 58.3086 330.34 58.3086C332.565 58.3086 334.623 58.1429 336.516 57.8117C338.457 57.4331 339.995 56.7942 341.131 55.895C342.314 54.9485 342.905 53.6707 342.905 52.0616C342.905 50.2632 342.361 48.9381 341.273 48.0862C340.184 47.187 338.622 46.5245 336.587 46.0985C334.552 45.6726 332.092 45.2467 329.205 44.8207C326.744 44.4894 324.519 44.0635 322.532 43.5429C320.591 43.0223 318.911 42.3598 317.492 41.5552C316.119 40.7507 315.078 39.7332 314.368 38.5027C313.658 37.2723 313.303 35.7815 313.303 34.0304C313.303 32.4687 313.634 31.0726 314.297 29.8421C315.007 28.5643 316.048 27.4758 317.421 26.5766C318.84 25.6774 320.662 24.9912 322.887 24.518C325.111 24.0447 327.785 23.8081 330.908 23.8081C333.653 23.8081 336.067 24.0684 338.149 24.5889C340.232 25.0622 341.959 25.7721 343.331 26.7186C344.751 27.6651 345.816 28.7773 346.526 30.0551C347.236 31.3329 347.591 32.7053 347.591 34.1724C347.591 34.3617 347.591 34.5274 347.591 34.6693C347.591 34.8113 347.567 35.0243 347.52 35.3082H341.77V34.9533C341.77 33.1549 341.249 31.7825 340.208 30.8359C339.167 29.8894 337.818 29.2269 336.162 28.8483C334.505 28.4697 332.754 28.2804 330.908 28.2804C329.678 28.2804 328.353 28.3513 326.933 28.4933C325.561 28.6353 324.259 28.8956 323.029 29.2742C321.845 29.6055 320.875 30.1261 320.118 30.8359C319.408 31.4985 319.053 32.4214 319.053 33.6045C319.053 35.0716 319.645 36.2074 320.828 37.012C322.011 37.7692 323.549 38.3608 325.442 38.7867C327.383 39.2126 329.441 39.5912 331.618 39.9225C333.89 40.2538 336.043 40.6324 338.078 41.0583C340.113 41.4369 341.912 42.0048 343.473 42.7621C345.082 43.5193 346.337 44.5841 347.236 45.9565C348.182 47.2817 348.656 49.0327 348.656 51.2097C348.656 53.292 348.253 55.0668 347.449 56.5339C346.644 58.001 345.437 59.2078 343.828 60.1543C342.267 61.0535 340.35 61.716 338.078 62.142C335.807 62.6152 333.18 62.8519 330.198 62.8519ZM356.914 16.8512V10.6751H362.522V16.8512H356.914ZM356.914 62V24.6599H362.522V62H356.914ZM392.43 62.8519C387.886 62.8519 384.077 62.1183 381 60.6512C377.924 59.1368 375.605 56.9361 374.043 54.0493C372.482 51.1151 371.701 47.542 371.701 43.33C371.701 39.0233 372.482 35.4266 374.043 32.5397C375.605 29.6528 377.924 27.4758 381 26.0087C384.077 24.5416 387.886 23.8081 392.43 23.8081C396.973 23.8081 400.783 24.5416 403.859 26.0087C406.935 27.4758 409.254 29.6528 410.816 32.5397C412.377 35.4266 413.158 39.0233 413.158 43.33C413.158 47.542 412.377 51.1151 410.816 54.0493C409.254 56.9361 406.935 59.1368 403.859 60.6512C400.783 62.1183 396.973 62.8519 392.43 62.8519ZM392.43 58.1666C395.316 58.1666 397.872 57.6934 400.096 56.7468C402.321 55.8003 404.048 54.2859 405.279 52.2036C406.556 50.1212 407.195 47.4 407.195 44.0399V42.6201C407.195 39.1653 406.556 36.4204 405.279 34.3854C404.048 32.3504 402.321 30.8596 400.096 29.9131C397.872 28.9193 395.316 28.4223 392.43 28.4223C389.543 28.4223 386.987 28.9193 384.763 29.9131C382.538 30.8596 380.787 32.3504 379.51 34.3854C378.279 36.4204 377.664 39.1653 377.664 42.6201V44.0399C377.664 47.4 378.279 50.1212 379.51 52.2036C380.787 54.2859 382.538 55.8003 384.763 56.7468C386.987 57.6934 389.543 58.1666 392.43 58.1666ZM422.323 62V24.6599H426.795L427.292 31.3329H427.86C429.28 29.2979 430.889 27.7361 432.687 26.6476C434.486 25.5591 436.355 24.8256 438.295 24.447C440.236 24.021 442.082 23.8081 443.833 23.8081C447.145 23.8081 449.914 24.2813 452.138 25.2278C454.363 26.1744 456.043 27.6651 457.178 29.7001C458.362 31.7351 458.953 34.4327 458.953 37.7928V62H453.345V38.8577C453.345 36.6334 453.061 34.8586 452.493 33.5335C451.973 32.1611 451.192 31.1199 450.151 30.41C449.157 29.7001 447.974 29.2269 446.601 28.9902C445.276 28.7536 443.833 28.6353 442.271 28.6353C439.905 28.6353 437.633 29.1559 435.456 30.1971C433.279 31.1909 431.481 32.6107 430.061 34.4564C428.641 36.3021 427.931 38.4791 427.931 40.9873V62H422.323Z" fill="white"/>
<path d="M244.433 46V39.9414H249.743V46H244.433Z" fill="white"/>
</svg>
